<svg xmlns="http://www.w3.org/2000/svg" x="0px" y="0px" width="100" height="100" viewBox="0 0 50 50">
<path d="M 9 4 C 6.2504839 4 4 6.2504839 4 9 L 4 16 L 4 40 L 4 41 C 4 43.749516 6.2504839 46 9 46 L 41 46 C 43.749516 46 46 43.749516 46 41 L 46 40 L 46 16 L 46 9 C 46 6.2504839 43.749516 4 41 4 L 9 4 z M 9 6 L 41 6 C 42.668484 6 44 7.3315161 44 9 L 44 12.029297 C 43.160943 11.392748 42.127936 11 41 11 L 9 11 C 7.8720637 11 6.8390569 11.392748 6 12.029297 L 6 9 C 6 7.3315161 7.3315161 6 9 6 z M 9 13 L 41 13 C 42.668484 13 44 14.331516 44 16 L 44 40 L 44 41 C 44 42.668484 42.668484 44 41 44 L 9 44 C 7.3315161 44 6 42.668484 6 41 L 6 40 L 6 16 C 6 14.331516 7.3315161 13 9 13 z M 14.984375 17.986328 A 1.0001 1.0001 0 0 0 14 19 C 14 25.063407 18.936593 30 25 30 C 31.063407 30 36 25.063407 36 19 A 1.0001 1.0001 0 1 0 34 19 C 34 23.982593 29.982593 28 25 28 C 20.017407 28 16 23.982593 16 19 A 1.0001 1.0001 0 0 0 14.984375 17.986328 z"></path>
</svg>